<?xml version="1.0" encoding="UTF-8" standalone="no"?><!DOCTYPE svg PUBLIC "-//W3C//DTD SVG 1.1//EN" "http://www.w3.org/Graphics/SVG/1.1/DTD/svg11.dtd"><svg width="100%" height="100%" viewBox="0 0 800 800" version="1.1" xmlns="http://www.w3.org/2000/svg" xmlns:xlink="http://www.w3.org/1999/xlink" xml:space="preserve" xmlns:serif="http://www.serif.com/" style="fill-rule:evenodd;clip-rule:evenodd;stroke-linejoin:round;stroke-miterlimit:2;"><path d="M45.243,414.81l560.511,0c-0,321.163 -560.511,321.163 -560.511,0Z" style="fill:#f59e0b;"/><circle cx="564.216" cy="267.64" r="123.322" style="fill:#f59e0b;"/><path d="M605.755,215.942c16.57,0 30.023,13.453 30.023,30.023c0,16.57 -13.683,3.16 -30.253,3.16c-16.57,0 -29.793,13.41 -29.793,-3.16c0,-16.57 13.453,-30.023 30.023,-30.023Z" style="fill:#b04800;"/><rect x="45.243" y="314.032" width="76.613" height="76.613" style="fill:#f59e0b;"/><rect x="143.333" y="314.032" width="76.613" height="76.613" style="fill:#f59e0b;"/><rect x="241.422" y="314.032" width="76.613" height="76.613" style="fill:#f59e0b;"/><rect x="339.512" y="314.032" width="76.613" height="76.613" style="fill:#f59e0b;"/><rect x="143.333" y="215.942" width="76.613" height="76.613" style="fill:#f59e0b;"/><rect x="241.422" y="215.942" width="76.613" height="76.613" style="fill:#f59e0b;"/><path d="M621.826,289.902c0.754,-2.533 2.675,-4.553 5.167,-5.434c2.492,-0.881 5.255,-0.518 7.435,0.978c11.726,8.064 45.169,6.407 102.773,-6.07c6.026,-1.304 12.135,1.82 14.606,7.468c2.009,4.701 3.018,9.6 2.947,14.534c-0.379,26.317 -30.804,47.249 -67.901,46.715c-37.097,-0.534 -66.908,-22.333 -66.529,-48.65c0.046,-3.225 0.553,-6.421 1.503,-9.542Z" style="fill:#ff6800;"/></svg>